<svg xmlns="http://www.w3.org/2000/svg" viewBox="0 0 120 120" role="img" aria-label="Ezra">
  <rect width="120" height="120" rx="26" fill="#1c2b4a"/>
  <polygon points="60,16 62,24 70,26 62,28 60,36 58,28 50,26 58,24" fill="#e89a2c"/>
  <polygon points="43,27.5 44.1,31.9 48.5,33 44.1,34.1 43,38.5 41.9,34.1 37.5,33 41.9,31.9" fill="#ffffff"/>
  <polygon points="77,25 78.2,29.8 83,31 78.2,32.2 77,37 75.8,32.2 71,31 75.8,29.8" fill="#ffffff"/>
  <path d="M60 47 C 50 41, 34 41, 26 47 L 26 77 C 34 71, 50 71, 60 77 Z" fill="none" stroke="#ffffff" stroke-width="5" stroke-linejoin="round"/>
  <path d="M60 47 C 70 41, 86 41, 94 47 L 94 77 C 86 71, 70 71, 60 77 Z" fill="none" stroke="#ffffff" stroke-width="5" stroke-linejoin="round"/>
  <line x1="60" y1="47" x2="60" y2="77" stroke="#ffffff" stroke-width="4"/>
  <text x="60" y="105" text-anchor="middle" font-family="Sora, Arial, sans-serif" font-weight="800" font-size="26" letter-spacing="1">
    <tspan fill="#ffffff">E</tspan><tspan fill="#e89a2c">Z</tspan><tspan fill="#ffffff">RA</tspan>
  </text>
</svg>
